<mxfile host="app.diagrams.net" modified="2022-01-05T02:51:30.552Z" agent="5.0 (Windows NT 10.0; Win64; x64) AppleWebKit/537.36 (KHTML, like Gecko) Chrome/96.0.4664.110 Safari/537.36 Edg/96.0.1054.62" etag="hDMDcr3iQa7LporgbeLt" version="16.2.1" type="github">
  <diagram id="C5RBs43oDa-KdzZeNtuy" name="Page-1">
    <mxGraphModel dx="865" dy="483" grid="1" gridSize="10" guides="1" tooltips="1" connect="1" arrows="1" fold="1" page="1" pageScale="1" pageWidth="827" pageHeight="1169" math="0" shadow="0">
      <root>
        <mxCell id="WIyWlLk6GJQsqaUBKTNV-0" />
        <mxCell id="WIyWlLk6GJQsqaUBKTNV-1" parent="WIyWlLk6GJQsqaUBKTNV-0" />
        <mxCell id="Q7rtufSbO12VYgDh_zSf-27" style="edgeStyle=orthogonalEdgeStyle;rounded=0;orthogonalLoop=1;jettySize=auto;html=1;entryX=0.5;entryY=0;entryDx=0;entryDy=0;" edge="1" parent="WIyWlLk6GJQsqaUBKTNV-1" target="Q7rtufSbO12VYgDh_zSf-0">
          <mxGeometry relative="1" as="geometry">
            <mxPoint x="381.25" y="120" as="sourcePoint" />
          </mxGeometry>
        </mxCell>
        <mxCell id="Q7rtufSbO12VYgDh_zSf-26" style="edgeStyle=orthogonalEdgeStyle;rounded=0;orthogonalLoop=1;jettySize=auto;html=1;entryX=0.5;entryY=0;entryDx=0;entryDy=0;" edge="1" parent="WIyWlLk6GJQsqaUBKTNV-1" source="Q7rtufSbO12VYgDh_zSf-0" target="Q7rtufSbO12VYgDh_zSf-4">
          <mxGeometry relative="1" as="geometry" />
        </mxCell>
        <mxCell id="Q7rtufSbO12VYgDh_zSf-28" style="edgeStyle=orthogonalEdgeStyle;rounded=0;orthogonalLoop=1;jettySize=auto;html=1;" edge="1" parent="WIyWlLk6GJQsqaUBKTNV-1" target="Q7rtufSbO12VYgDh_zSf-5">
          <mxGeometry relative="1" as="geometry">
            <mxPoint x="381" y="240" as="sourcePoint" />
          </mxGeometry>
        </mxCell>
        <mxCell id="Q7rtufSbO12VYgDh_zSf-31" style="edgeStyle=orthogonalEdgeStyle;rounded=0;orthogonalLoop=1;jettySize=auto;html=1;entryX=0.5;entryY=0;entryDx=0;entryDy=0;" edge="1" parent="WIyWlLk6GJQsqaUBKTNV-1" target="Q7rtufSbO12VYgDh_zSf-6">
          <mxGeometry relative="1" as="geometry">
            <mxPoint x="381" y="240" as="sourcePoint" />
          </mxGeometry>
        </mxCell>
        <mxCell id="Q7rtufSbO12VYgDh_zSf-0" value="옷 종류별로 옷을 정리할 옷장 번호 세팅" style="rounded=1;whiteSpace=wrap;html=1;fontSize=12;glass=0;strokeWidth=1;shadow=0;" vertex="1" parent="WIyWlLk6GJQsqaUBKTNV-1">
          <mxGeometry x="311.5" y="160" width="139" height="50" as="geometry" />
        </mxCell>
        <mxCell id="Q7rtufSbO12VYgDh_zSf-12" style="edgeStyle=orthogonalEdgeStyle;rounded=0;orthogonalLoop=1;jettySize=auto;html=1;exitX=0.5;exitY=1;exitDx=0;exitDy=0;entryX=0.5;entryY=0;entryDx=0;entryDy=0;" edge="1" parent="WIyWlLk6GJQsqaUBKTNV-1" source="Q7rtufSbO12VYgDh_zSf-4" target="Q7rtufSbO12VYgDh_zSf-7">
          <mxGeometry relative="1" as="geometry" />
        </mxCell>
        <mxCell id="Q7rtufSbO12VYgDh_zSf-4" value="오늘의 패션" style="rounded=0;whiteSpace=wrap;html=1;" vertex="1" parent="WIyWlLk6GJQsqaUBKTNV-1">
          <mxGeometry x="312" y="280" width="138.5" height="50" as="geometry" />
        </mxCell>
        <mxCell id="Q7rtufSbO12VYgDh_zSf-32" style="edgeStyle=orthogonalEdgeStyle;rounded=0;orthogonalLoop=1;jettySize=auto;html=1;entryX=0.5;entryY=0;entryDx=0;entryDy=0;" edge="1" parent="WIyWlLk6GJQsqaUBKTNV-1" source="Q7rtufSbO12VYgDh_zSf-5" target="Q7rtufSbO12VYgDh_zSf-10">
          <mxGeometry relative="1" as="geometry" />
        </mxCell>
        <mxCell id="Q7rtufSbO12VYgDh_zSf-5" value="옷 관리" style="rounded=0;whiteSpace=wrap;html=1;" vertex="1" parent="WIyWlLk6GJQsqaUBKTNV-1">
          <mxGeometry x="510" y="280" width="138.5" height="50" as="geometry" />
        </mxCell>
        <mxCell id="Q7rtufSbO12VYgDh_zSf-8" style="edgeStyle=orthogonalEdgeStyle;rounded=0;orthogonalLoop=1;jettySize=auto;html=1;entryX=0.5;entryY=0;entryDx=0;entryDy=0;" edge="1" parent="WIyWlLk6GJQsqaUBKTNV-1" source="Q7rtufSbO12VYgDh_zSf-6" target="Q7rtufSbO12VYgDh_zSf-7">
          <mxGeometry relative="1" as="geometry" />
        </mxCell>
        <mxCell id="Q7rtufSbO12VYgDh_zSf-6" value="옷 등록" style="rounded=0;whiteSpace=wrap;html=1;" vertex="1" parent="WIyWlLk6GJQsqaUBKTNV-1">
          <mxGeometry x="110" y="280" width="138.5" height="50" as="geometry" />
        </mxCell>
        <mxCell id="Q7rtufSbO12VYgDh_zSf-20" style="edgeStyle=orthogonalEdgeStyle;rounded=0;orthogonalLoop=1;jettySize=auto;html=1;entryX=0.5;entryY=0;entryDx=0;entryDy=0;" edge="1" parent="WIyWlLk6GJQsqaUBKTNV-1" source="Q7rtufSbO12VYgDh_zSf-7" target="Q7rtufSbO12VYgDh_zSf-15">
          <mxGeometry relative="1" as="geometry" />
        </mxCell>
        <mxCell id="Q7rtufSbO12VYgDh_zSf-21" style="edgeStyle=orthogonalEdgeStyle;rounded=0;orthogonalLoop=1;jettySize=auto;html=1;exitX=0.5;exitY=1;exitDx=0;exitDy=0;entryX=0.5;entryY=0;entryDx=0;entryDy=0;" edge="1" parent="WIyWlLk6GJQsqaUBKTNV-1" source="Q7rtufSbO12VYgDh_zSf-7" target="Q7rtufSbO12VYgDh_zSf-14">
          <mxGeometry relative="1" as="geometry" />
        </mxCell>
        <mxCell id="Q7rtufSbO12VYgDh_zSf-7" value="옷 사진 촬영" style="ellipse;whiteSpace=wrap;html=1;" vertex="1" parent="WIyWlLk6GJQsqaUBKTNV-1">
          <mxGeometry x="220" y="385" width="120" height="70" as="geometry" />
        </mxCell>
        <mxCell id="Q7rtufSbO12VYgDh_zSf-25" style="edgeStyle=orthogonalEdgeStyle;rounded=0;orthogonalLoop=1;jettySize=auto;html=1;entryX=0.5;entryY=0;entryDx=0;entryDy=0;" edge="1" parent="WIyWlLk6GJQsqaUBKTNV-1" source="Q7rtufSbO12VYgDh_zSf-10" target="Q7rtufSbO12VYgDh_zSf-11">
          <mxGeometry relative="1" as="geometry" />
        </mxCell>
        <mxCell id="Q7rtufSbO12VYgDh_zSf-10" value="별명으로 옷 검색" style="rounded=1;whiteSpace=wrap;html=1;fontSize=12;glass=0;strokeWidth=1;shadow=0;" vertex="1" parent="WIyWlLk6GJQsqaUBKTNV-1">
          <mxGeometry x="510" y="400" width="138.5" height="40" as="geometry" />
        </mxCell>
        <mxCell id="Q7rtufSbO12VYgDh_zSf-24" style="edgeStyle=orthogonalEdgeStyle;rounded=0;orthogonalLoop=1;jettySize=auto;html=1;" edge="1" parent="WIyWlLk6GJQsqaUBKTNV-1" source="Q7rtufSbO12VYgDh_zSf-11" target="Q7rtufSbO12VYgDh_zSf-13">
          <mxGeometry relative="1" as="geometry" />
        </mxCell>
        <mxCell id="Q7rtufSbO12VYgDh_zSf-11" value="수납 위치 안내" style="rounded=0;whiteSpace=wrap;html=1;" vertex="1" parent="WIyWlLk6GJQsqaUBKTNV-1">
          <mxGeometry x="510" y="490" width="138.5" height="50" as="geometry" />
        </mxCell>
        <mxCell id="Q7rtufSbO12VYgDh_zSf-13" value="관리 및 세탁 정보 안내" style="rounded=0;whiteSpace=wrap;html=1;" vertex="1" parent="WIyWlLk6GJQsqaUBKTNV-1">
          <mxGeometry x="510" y="585" width="138.5" height="50" as="geometry" />
        </mxCell>
        <mxCell id="Q7rtufSbO12VYgDh_zSf-22" style="edgeStyle=orthogonalEdgeStyle;rounded=0;orthogonalLoop=1;jettySize=auto;html=1;exitX=0.5;exitY=1;exitDx=0;exitDy=0;entryX=0.5;entryY=0;entryDx=0;entryDy=0;" edge="1" parent="WIyWlLk6GJQsqaUBKTNV-1" source="Q7rtufSbO12VYgDh_zSf-14" target="Q7rtufSbO12VYgDh_zSf-18">
          <mxGeometry relative="1" as="geometry" />
        </mxCell>
        <mxCell id="Q7rtufSbO12VYgDh_zSf-14" value="유사도 계산으로 착장 의류 인식" style="rounded=0;whiteSpace=wrap;html=1;" vertex="1" parent="WIyWlLk6GJQsqaUBKTNV-1">
          <mxGeometry x="320" y="500" width="138.5" height="50" as="geometry" />
        </mxCell>
        <mxCell id="Q7rtufSbO12VYgDh_zSf-23" style="edgeStyle=orthogonalEdgeStyle;rounded=0;orthogonalLoop=1;jettySize=auto;html=1;entryX=0.5;entryY=0;entryDx=0;entryDy=0;" edge="1" parent="WIyWlLk6GJQsqaUBKTNV-1" source="Q7rtufSbO12VYgDh_zSf-15" target="Q7rtufSbO12VYgDh_zSf-17">
          <mxGeometry relative="1" as="geometry" />
        </mxCell>
        <mxCell id="Q7rtufSbO12VYgDh_zSf-15" value="옷 별명 지정" style="rounded=1;whiteSpace=wrap;html=1;fontSize=12;glass=0;strokeWidth=1;shadow=0;" vertex="1" parent="WIyWlLk6GJQsqaUBKTNV-1">
          <mxGeometry x="120" y="500" width="139" height="50" as="geometry" />
        </mxCell>
        <mxCell id="Q7rtufSbO12VYgDh_zSf-17" value="수납 위치 추천" style="rounded=0;whiteSpace=wrap;html=1;" vertex="1" parent="WIyWlLk6GJQsqaUBKTNV-1">
          <mxGeometry x="120.5" y="585" width="138.5" height="50" as="geometry" />
        </mxCell>
        <mxCell id="Q7rtufSbO12VYgDh_zSf-18" value="착장 통계 정보 제공" style="rounded=0;whiteSpace=wrap;html=1;" vertex="1" parent="WIyWlLk6GJQsqaUBKTNV-1">
          <mxGeometry x="320" y="585" width="138.5" height="50" as="geometry" />
        </mxCell>
        <mxCell id="Q7rtufSbO12VYgDh_zSf-33" value="웹페이지 접속" style="ellipse;whiteSpace=wrap;html=1;" vertex="1" parent="WIyWlLk6GJQsqaUBKTNV-1">
          <mxGeometry x="320" y="70" width="120" height="50" as="geometry" />
        </mxCell>
      </root>
    </mxGraphModel>
  </diagram>
</mxfile>
